<?xml version="1.0" encoding="UTF-8" standalone="no"?>
<!DOCTYPE svg PUBLIC "-//W3C//DTD SVG 1.1//EN" "http://www.w3.org/Graphics/SVG/1.1/DTD/svg11.dtd">
<svg xmlns:dc="http://purl.org/dc/elements/1.1/" xmlns:xl="http://www.w3.org/1999/xlink" xmlns="http://www.w3.org/2000/svg" version="1.1" viewBox="0 0 1600 1600" width="1600" height="1600">
  <defs/>
  <metadata> Produced by OmniGraffle 7.10.2 
    <dc:date>2019-06-01 14:42:35 +0000</dc:date>
  </metadata>
  <g id="Canvas_1" fill-opacity="1" stroke-dasharray="none" stroke-opacity="1" stroke="none" fill="none">
    <title>Canvas 1</title>
    <g id="Canvas_1: Layer 1">
      <title>Layer 1</title>
      <g id="Graphic_21">
        <path d="M 1348.0072 251.99285 C 1045.351 -50.6648 554.64895 -50.6648 251.99285 251.99285 C -50.6648 554.64895 -50.6648 1045.351 251.99285 1348.0072 C 554.64895 1650.6648 1045.351 1650.6648 1348.0072 1348.0072 C 1650.6648 1045.351 1650.6648 554.64895 1348.0072 251.99285 M 954.76 1496.383 L 954.76 1496.383 C 954.76 1496.383 954.76 1316.856 954.76 1226.719 C 761.238 1226.719 568.002 1226.719 374.321 1226.719 C 374.321 1135.942 374.321 1045.914 374.321 955.152 C 399.609 955.152 424.984 955.152 450.854 955.152 C 450.854 851.672 450.854 748.925 450.854 645.593 C 425.466 645.593 400.083 645.593 374.284 645.593 C 374.284 554.847 374.284 464.683 374.284 373.809 C 567.746 373.809 760.989 373.809 954.601 373.809 C 954.601 283.377 954.601 102.975 954.601 102.975 C 954.601 102.975 1392.474 758.361 1418.261 796.834 C 1420.265 799.826 1419.24 801.544 1417.656 803.924 C 1399.186 831.589 954.76 1496.383 954.76 1496.383 Z M 619.871 795.021 C 620.31 794.088 621.307 794.255 622.069 794.036 C 630.934 791.471 637.682 786.161 642.305 778.23 C 649.268 766.285 649.769 753.254 647.705 740.119 C 645.121 723.66 635.68 712.561 619.87 706.942 C 613.194 704.569 606.326 703.447 599.298 703.426 C 573.995 703.349 548.69 703.369 523.387 703.384 C 522.197 703.384 520.85 702.909 519.781 704.172 C 519.781 768.235 519.781 832.379 519.781 896.3 C 520.861 897.101 521.771 896.949 522.649 896.946 C 547.414 896.935 572.179 896.932 596.945 896.902 C 601.973 896.896 606.993 896.64 611.947 895.703 C 628.138 892.647 641.288 885.192 648.335 869.555 C 654.49 855.896 656.057 841.45 652.688 826.944 C 648.806 810.225 638.993 798.767 621.087 795.948 C 620.576 795.866 620.038 795.679 619.871 795.021 Z M 662.973 896.583 C 679.966 896.583 696.556 896.583 713.411 896.583 C 713.411 883.483 713.411 870.769 713.411 858.054 C 713.411 845.366 713.411 832.676 713.411 819.895 C 714.577 819.698 715.265 819.469 715.95 819.48 C 720.436 819.538 724.93 819.494 729.404 819.772 C 735.947 820.176 739.485 823.137 741.355 829.464 C 743.003 835.035 743.155 840.787 743.2 846.533 C 743.28 856.404 743.02 866.282 743.636 876.142 C 744.074 883.13 744.888 890.049 747.788 896.41 C 765.911 896.41 783.827 896.41 801.66 896.41 C 801.858 894.877 801.368 894.181 800.617 893.611 C 796.109 890.189 794.426 885.387 794.128 879.993 C 793.84 874.8 793.638 869.596 793.544 864.394 C 793.362 854.167 794.016 843.915 793.068 833.716 C 791.421 815.989 783.395 803.973 763.788 801.687 C 763.617 801.667 763.459 801.546 763.287 801.466 C 763.513 801.224 763.696 800.858 763.973 800.764 C 765.155 800.351 766.355 799.977 767.567 799.665 C 776.891 797.264 784.102 792.018 788.766 783.562 C 794.907 772.428 795.531 760.308 794.635 748 C 793.908 737.995 791.452 728.533 785.102 720.459 C 775.838 708.683 762.939 703.93 748.72 703.656 C 720.371 703.107 692.005 703.495 663.645 703.509 C 663.507 703.509 663.37 703.679 662.975 703.937 C 662.973 767.95 662.973 832.131 662.973 896.583 Z M 932.355 703.525 C 931.915 704.927 932.446 705.48 932.729 706.115 C 945.78 735.399 958.761 764.713 971.955 793.932 C 973.494 797.341 973.594 800.01 971.975 803.414 C 961.506 825.401 951.248 847.487 940.951 869.551 C 936.801 878.448 932.714 887.374 928.423 896.665 C 947.534 896.665 966.103 896.665 984.774 896.665 C 991.112 877.584 997.373 858.727 1003.634 839.872 C 1004.038 839.933 1004.443 839.99 1004.848 840.051 C 1011.134 858.991 1017.417 877.929 1023.667 896.764 C 1042.615 896.764 1061.06 896.764 1079.567 896.764 C 1079.78 895.429 1079.039 894.56 1078.615 893.64 C 1064.673 863.392 1050.709 833.158 1036.739 802.922 C 1035.682 800.635 1034.823 798.619 1036.079 795.845 C 1044.556 777.07 1052.819 758.197 1061.123 739.344 C 1066.294 727.603 1071.413 715.84 1076.753 703.64 C 1057.694 703.64 1039.142 703.64 1020.392 703.64 C 1015.097 722.049 1009.843 740.307 1004.589 758.565 C 1004.294 758.479 1004 758.393 1003.705 758.306 C 998.474 740.091 993.239 721.873 987.969 703.525 C 969.262 703.525 950.83 703.525 932.355 703.525 Z M 858.463 855.808 C 858.463 842.465 858.463 829.998 858.463 817.011 C 878.645 817.011 898.46 817.011 918.151 817.011 C 918.151 803.655 918.151 790.826 918.151 777.422 C 897.959 777.422 878.14 777.422 858.458 777.422 C 858.458 766.141 858.458 755.45 858.458 744.274 C 879.922 744.274 901.025 744.274 922.15 744.274 C 922.15 730.399 922.15 717.024 922.15 703.59 C 884.003 703.59 846.185 703.59 808.148 703.59 C 808.148 768.115 808.148 832.414 808.148 896.639 C 847.22 896.639 885.916 896.639 924.602 896.639 C 924.602 882.955 924.602 869.599 924.602 855.808 C 902.439 855.808 880.609 855.808 858.463 855.808 Z M 1185.051 746.093 C 1185.051 796.765 1185.051 846.605 1185.051 896.597 C 1201.992 896.597 1218.564 896.597 1235.682 896.597 C 1235.682 846.28 1235.682 796.317 1235.682 745.831 C 1248.518 745.831 1260.803 745.831 1273.003 745.831 C 1273.003 731.421 1273.003 717.542 1273.003 703.613 C 1230.838 703.613 1189.082 703.613 1147.082 703.613 C 1147.082 717.825 1147.082 731.73 1147.082 746.092 C 1159.673 746.093 1171.989 746.093 1185.051 746.093 Z M 856.176 1033.355 C 873.699 1027.598 881.045 1014.952 884.198 999.099 C 885.354 993.282 885.902 987.351 885.506 981.425 C 884.342 964.122 878.047 949.739 861.777 941.387 C 853.622 937.199 844.796 935.779 835.722 935.762 C 816.157 935.724 796.59 935.742 777.024 935.771 C 775.84 935.773 774.486 935.292 773.482 936.574 C 773.482 1000.732 773.482 1064.936 773.482 1129.262 C 781.349 1129.262 788.967 1129.262 797.079 1129.262 C 797.079 1100.496 797.079 1072.062 797.079 1043.172 C 810.454 1043.364 823.359 1042.501 836.204 1043.629 C 847.573 1044.628 854.401 1051.39 856.646 1062.53 C 857.502 1066.765 857.91 1071.04 858.149 1075.349 C 858.757 1086.276 859.355 1097.206 860.171 1108.121 C 860.626 1114.195 861.515 1120.236 863.928 1125.928 C 864.633 1127.584 865.208 1129.475 867.432 1129.489 C 876.126 1129.545 884.82 1129.511 894.576 1129.511 C 889.111 1125.008 887.189 1119.95 886.331 1114.333 C 885.547 1109.189 884.864 1104.048 884.633 1098.833 C 884.124 1087.37 883.738 1075.886 882.751 1064.456 C 881.328 1047.939 873.209 1038.367 856.176 1033.355 Z M 758.202 1129.348 C 740.716 1064.34 723.42 1000.039 706.194 935.989 C 695.048 935.989 684.675 935.989 674.019 935.989 C 655.426 1000.43 636.882 1064.704 618.233 1129.341 C 626.928 1129.341 634.941 1129.341 643.276 1129.341 C 648.048 1111.661 652.789 1094.105 657.498 1076.662 C 678.483 1076.662 698.895 1076.662 719.431 1076.662 C 724.078 1094.434 728.672 1112.018 733.204 1129.349 C 741.809 1129.348 749.666 1129.348 758.202 1129.348 Z M 1135.619 896.71 C 1135.619 832.153 1135.619 767.891 1135.619 703.64 C 1118.771 703.64 1102.332 703.64 1085.713 703.64 C 1085.713 768.111 1085.713 832.269 1085.713 896.71 C 1102.418 896.71 1119.019 896.71 1135.619 896.71 Z M 522.804 936.409 C 522.804 1000.754 522.804 1064.918 522.804 1129.265 C 530.686 1129.265 538.281 1129.265 546.455 1129.265 C 546.455 1102.004 546.455 1075.031 546.455 1048.258 C 548.738 1047.259 550.545 1047.689 552.302 1047.672 C 561.99 1047.575 571.688 1047.807 581.363 1047.416 C 605.729 1046.433 624.459 1031.362 629.886 1008.274 C 632.932 995.315 632.615 982.228 628.973 969.415 C 624.39 953.279 613.752 943.019 597.577 938.538 C 590.262 936.511 582.772 935.8 575.215 935.778 C 559.067 935.728 542.919 935.745 526.771 935.761 C 525.551 935.766 524.258 935.41 522.804 936.409 Z M 1097.42 1129.373 C 1097.42 1126.805 1097.42 1124.851 1097.42 1122.899 C 1097.44 1101.185 1097.486 1079.473 1097.444 1057.761 C 1097.439 1055.38 1097.703 1053.162 1098.661 1050.969 C 1112.396 1019.454 1126.113 987.929 1139.813 956.395 C 1142.711 949.726 1145.998 943.212 1148.603 935.732 C 1141.451 935.732 1134.854 935.921 1128.277 935.655 C 1124.85 935.514 1123.238 936.775 1121.952 939.888 C 1113.183 961.074 1104.234 982.185 1095.322 1003.31 C 1092.243 1010.609 1089.094 1017.877 1085.566 1026.121 C 1079.773 1011.967 1074.406 998.91 1069.087 985.838 C 1062.872 970.571 1056.725 955.275 1050.463 940.028 C 1049.775 938.355 1049.701 935.812 1047.039 935.787 C 1039.047 935.713 1031.053 935.76 1022.245 935.76 C 1024.329 940.428 1026.09 944.286 1027.783 948.175 C 1042.363 981.657 1056.908 1015.156 1071.547 1048.613 C 1072.951 1051.826 1073.531 1055.015 1073.518 1058.497 C 1073.424 1080.568 1073.444 1102.641 1073.465 1124.71 C 1073.468 1126.252 1072.909 1127.963 1074.396 1129.373 C 1081.807 1129.373 1089.301 1129.373 1097.42 1129.373 Z M 1012.583 936.167 C 971.997 936.167 931.767 936.167 891.753 936.167 C 891.753 943.331 891.753 950.046 891.753 957.086 C 907.928 957.086 923.664 957.086 940.078 957.086 C 940.078 1014.719 940.078 1072.004 940.078 1129.142 C 948.375 1129.142 955.974 1129.142 964.076 1129.142 C 964.076 1071.573 964.076 1014.441 964.076 956.856 C 980.478 956.856 996.364 956.856 1012.553 956.856 C 1012.94 949.691 1012.863 942.984 1012.583 936.167 Z" fill="white"/>
      </g>
      <g id="Graphic_15">
        <path d="M 570.212 860.624 C 570.212 844.676 570.212 829.321 570.212 813.684 C 575.826 813.684 581.388 813.125 586.789 813.816 C 594.413 814.795 598.643 820.479 600.602 827.247 C 602.878 835.099 602.768 843.163 598.928 850.772 C 595.746 857.075 590.723 860.52 583.584 860.614 C 579.32 860.671 575.054 860.624 570.212 860.624 Z" fill="#0fb5cf"/>
      </g>
      <g id="Graphic_16">
        <path d="M 570.315 779.208 C 570.315 765.799 570.315 752.975 570.315 739.888 C 575.307 739.261 580.097 739.379 584.88 739.825 C 585.922 739.922 586.947 740.406 587.935 740.815 C 595.655 744.009 599.813 754.164 597.775 764.782 C 596.019 773.925 590.171 779.02 581.15 779.198 C 577.752 779.263 574.353 779.208 570.315 779.208 Z" fill="#0fb5cf"/>
      </g>
      <g id="Graphic_17">
        <path d="M 713.525 784.971 C 713.525 769.666 713.525 755.001 713.525 739.563 C 723.145 739.771 733.14 737.667 740.401 746.288 C 745.692 752.569 745.946 768.465 741.271 776.03 C 734.695 786.668 724.188 785.276 713.525 784.971 Z" fill="#0fb5cf"/>
      </g>
      <g id="Graphic_18">
        <path d="M 797.264 1023.652 C 797.264 1000.646 797.264 978.173 797.264 955.173 C 810.248 955.459 822.999 954.011 835.561 956.334 C 851.682 959.314 860.134 970.095 860.242 986.599 C 860.275 991.459 859.933 996.259 858.718 1000.982 C 855.583 1013.155 847.806 1020.537 835.465 1022.611 C 822.87 1024.726 810.158 1023.253 797.264 1023.652 Z" fill="#0fb5cf"/>
      </g>
      <g id="Graphic_19">
        <path d="M 690.019 964.179 C 698.125 994.848 706.232 1025.516 714.445 1056.59 C 697.059 1056.59 680.123 1056.59 662.548 1056.59 C 671.421 1025.648 680.218 994.964 689.017 964.277 C 689.35 964.247 689.685 964.211 690.019 964.179 Z" fill="#0fb5cf"/>
      </g>
      <g id="Graphic_20">
        <path d="M 546.505 1028.229 C 546.505 1003.506 546.505 979.707 546.505 956.074 C 547.906 954.808 549.4 955.169 550.794 955.188 C 559.569 955.306 568.349 954.89 577.121 955.535 C 593.574 956.74 603.267 965.093 606.09 981.304 C 607.838 991.337 607.074 1001.242 602.659 1010.699 C 598.117 1020.428 590.474 1026.178 580.067 1027.592 C 569.086 1029.082 557.985 1027.986 546.505 1028.229 Z" fill="#0fb5cf"/>
      </g>
    </g>
  </g>
</svg>
