<?xml version="1.0" encoding="UTF-8" standalone="no"?>
<!DOCTYPE svg PUBLIC "-//W3C//DTD SVG 1.1//EN" "http://www.w3.org/Graphics/SVG/1.1/DTD/svg11.dtd">
<svg xmlns="http://www.w3.org/2000/svg" xmlns:xl="http://www.w3.org/1999/xlink" version="1.1" xmlns:dc="http://purl.org/dc/elements/1.1/" viewBox="0 0 630 630" width="630" height="630">
  <defs>
    <clipPath id="inner_stroke_clip_path">
      <path d="M 329.9965 227.42293 C 329.9965 230.41307 329.37997 235.46856 325.4034 235.46856 C 321.42683 235.46856 320.5637 230.41307 320.5637 227.36128 C 320.5637 224.5561 321.6426 219.4698 325.2801 219.4698 C 328.91758 219.4698 329.9965 224.61776 329.9965 227.42293 Z M 335.11363 227.3921 C 335.11363 221.44266 332.031 215 325.2801 215 C 318.4367 215 315.44656 221.381 315.44656 227.3921 C 315.44656 233.37238 318.4367 240 325.4034 240 C 332.2468 240 335.11363 233.34155 335.11363 227.3921 Z"/>
    </clipPath>
    <clipPath id="inner_stroke_clip_path_2">
      <path d="M 302.31547 215 L 297.8765 215 C 297.72237 216.5413 297.44494 217.28113 296.76676 217.80518 C 296.02693 218.32922 294.7939 218.51418 293.19093 218.57583 L 293.19093 222.5524 L 297.19833 222.5524 L 297.19833 239.0444 L 302.31547 239.0444 Z"/>
    </clipPath>
  </defs>
  <metadata> Produced by OmniGraffle 7.10.2 
    <dc:date>2019-06-03 21:42:30 +0000</dc:date>
  </metadata>
  <g id="404" fill="none" fill-opacity="1" stroke="none" stroke-opacity="1" stroke-dasharray="none">
    <title>404</title>
    <g id="404: Layer 1">
      <title>Layer 1</title>
      <g id="Group_57">
        <g id="Graphic_70">
          <rect x="205" y="60" width="220" height="110" fill="black"/>
          <rect x="205" y="60" width="220" height="110" stroke="white" stroke-linecap="square" stroke-linejoin="miter" stroke-width="3"/>
        </g>
        <g id="Graphic_69">
          <path d="M 315 170 L 315 60 C 334.30903 60 353.2779 65.08269 370 74.73721 L 315 170 Z" fill="black"/>
          <path d="M 315 170 L 315 60 C 334.30903 60 353.2779 65.08269 370 74.73721 L 315 170 Z" stroke="white" stroke-linecap="square" stroke-linejoin="miter" stroke-width="3"/>
        </g>
        <g id="Graphic_68">
          <path d="M 315 170 L 410.2628 115 C 419.9173 131.72211 425 150.69097 425 170 L 315 170 Z" fill="black"/>
          <path d="M 315 170 L 410.2628 115 C 419.9173 131.72211 425 150.69097 425 170 L 315 170 Z" stroke="white" stroke-linecap="square" stroke-linejoin="miter" stroke-width="3"/>
        </g>
        <g id="Graphic_67">
          <path d="M 315 170 L 370 74.73721 C 386.7221 84.39172 400.6083 98.27789 410.2628 115 L 315 170 Z" fill="black"/>
          <path d="M 315 170 L 370 74.73721 C 386.7221 84.39172 400.6083 98.27789 410.2628 115 L 315 170 Z" stroke="white" stroke-linecap="square" stroke-linejoin="miter" stroke-width="3"/>
        </g>
        <g id="Graphic_66">
          <path d="M 315 170 L 205 170 C 205 150.69097 210.0827 131.72211 219.7372 115 L 315 170 Z" fill="black"/>
          <path d="M 315 170 L 205 170 C 205 150.69097 210.0827 131.72211 219.7372 115 L 315 170 Z" stroke="white" stroke-linecap="square" stroke-linejoin="miter" stroke-width="3"/>
        </g>
        <g id="Graphic_65">
          <path d="M 315 170 L 260 74.73721 C 276.7221 65.08269 295.69097 60 315 60 L 315 170 Z" fill="black"/>
          <path d="M 315 170 L 260 74.73721 C 276.7221 65.08269 295.69097 60 315 60 L 315 170 Z" stroke="white" stroke-linecap="square" stroke-linejoin="miter" stroke-width="3"/>
        </g>
        <g id="Graphic_64">
          <path d="M 315 170 L 219.7372 115 C 229.39172 98.27789 243.2779 84.39172 260 74.73721 L 315 170 Z" fill="black"/>
          <path d="M 315 170 L 219.7372 115 C 229.39172 98.27789 243.2779 84.39172 260 74.73721 L 315 170 Z" stroke="white" stroke-linecap="square" stroke-linejoin="miter" stroke-width="3"/>
        </g>
        <g id="Graphic_63">
          <path d="M 275 170 C 275 147.9086 292.90864 130 315 130 C 337.09136 130 355 147.9086 355 170 L 275 170" fill="black"/>
          <path d="M 275 170 C 275 147.9086 292.90864 130 315 130 C 337.09136 130 355 147.9086 355 170 L 275 170" stroke="white" stroke-linecap="square" stroke-linejoin="miter" stroke-width="3"/>
        </g>
        <g id="Group_58">
          <g id="Graphic_62">
            <rect x="205" y="170" width="220" height="420" fill="black"/>
            <rect x="205" y="170" width="220" height="420" stroke="white" stroke-linecap="square" stroke-linejoin="miter" stroke-width="3"/>
          </g>
          <g id="Graphic_61">
            <path d="M 265 355 L 265 380 L 365 380 L 365 355 Z M 271 367 L 359 367 L 359 378 L 271 378 Z M 270.41745 358.0909 L 270.41745 359.01806 L 268.28438 359.01806 L 268.28438 359.9634 L 270.20536 359.9634 L 270.20536 360.8542 L 268.29044 360.8542 L 268.29044 362.8176 L 267.3148 362.8176 L 267.3148 358.0909 Z M 272.12633 358.0909 L 272.12633 362.8176 L 271.14464 362.8176 L 271.14464 358.0909 Z M 275.6653 359.58162 C 275.6653 359.2362 275.42896 359.012 275.06537 359.012 L 274.18063 359.012 L 274.18063 360.1452 L 275.06537 360.15125 C 275.42896 360.15125 275.6653 359.92098 275.6653 359.58162 Z M 275.88345 360.9148 L 277.01058 362.8176 L 275.84103 362.8176 L 274.8048 361.0663 L 274.18063 361.0663 L 274.18063 362.8176 L 273.1262 362.8176 L 273.1262 358.0909 L 275.07143 358.0909 C 276.16826 358.0909 276.69547 358.75142 276.69547 359.618 C 276.69547 360.38153 276.2531 360.75724 275.88345 360.9148 Z M 281.33126 361.5329 L 281.33126 361.5329 C 281.33126 362.3146 280.7374 362.9206 279.43453 362.9206 C 278.66492 362.9206 277.8529 362.5449 277.37417 361.93285 L 278.14983 361.3087 C 278.44677 361.7268 278.9558 361.97527 279.4406 361.99345 C 279.9981 362.0177 280.26473 361.82983 280.26473 361.5329 C 280.26473 361.20567 279.98597 361.05417 279.61026 360.96933 L 278.9255 360.81784 C 278.25285 360.6603 277.5075 360.33305 277.5075 359.4059 C 277.5075 358.64235 278.11348 358.0121 279.35575 358.0121 C 280.16777 358.0121 280.81617 358.3151 281.24036 358.8423 L 280.4344 359.46043 C 280.20413 359.13925 279.80418 358.9332 279.35575 358.9332 C 278.84672 358.9332 278.57402 359.12713 278.57402 359.36953 C 278.57402 359.61192 278.78006 359.7634 279.29515 359.8846 L 279.89507 360.03005 C 280.9313 360.2785 281.33126 360.7754 281.33126 361.5329 Z M 285.4156 358.0909 L 285.4156 359.0241 L 284.0885 359.0241 L 284.0885 362.8176 L 283.11286 362.8176 L 283.11286 359.0241 L 281.78575 359.0241 L 281.78575 358.0909 Z M 291.0028 361.88437 L 291.0028 362.8176 L 287.96075 362.8176 L 287.96075 358.0909 L 288.93033 358.0909 L 288.93033 361.88437 Z M 294.80233 360.4785 C 294.80233 359.6301 294.4751 358.9332 293.5843 358.9332 C 292.69956 358.9332 292.3602 359.63616 292.3602 360.4785 C 292.3602 361.36322 292.67532 361.9995 293.5843 361.9995 C 294.49934 361.9995 294.80233 361.36322 294.80233 360.4785 Z M 295.85675 360.4785 L 295.85675 360.4785 C 295.85675 361.87225 295.0811 362.9206 293.57824 362.9206 C 292.08145 362.9206 291.3058 361.8662 291.3058 360.47242 C 291.3058 359.0544 292.0451 358.00606 293.57824 358.00606 C 295.09926 358.00606 295.85675 359.06654 295.85675 360.4785 Z M 299.1533 359.58162 C 299.1533 359.2362 298.91698 359.012 298.5534 359.012 L 297.66864 359.012 L 297.66864 360.1452 L 298.5534 360.15125 C 298.91698 360.15125 299.1533 359.92098 299.1533 359.58162 Z M 299.37147 360.9148 L 300.4986 362.8176 L 299.32905 362.8176 L 298.2928 361.0663 L 297.66864 361.0663 L 297.66864 362.8176 L 296.61423 362.8176 L 296.61423 358.0909 L 298.55944 358.0909 C 299.65628 358.0909 300.1835 358.75142 300.1835 359.618 C 300.1835 360.38153 299.7411 360.75724 299.37147 360.9148 Z M 304.0739 360.42394 C 304.0739 359.77554 303.68003 358.9938 302.9771 358.9938 L 302.10446 358.9938 L 302.10446 361.8965 L 302.93466 361.8965 C 303.72245 361.8965 304.0739 361.1572 304.0739 360.42394 Z M 305.12833 360.43 L 305.12833 360.43 C 305.12833 361.67228 304.46175 362.8176 302.8983 362.8176 L 301.1046 362.8176 L 301.1046 358.0909 L 302.90436 358.0909 C 304.46175 358.0909 305.12833 359.30287 305.12833 360.43 Z M 310.09742 361.139 C 310.09742 360.57544 309.7823 360.1149 309.32176 360.1149 C 308.8491 360.1149 308.54003 360.57544 308.54003 361.139 C 308.54003 361.69045 308.8491 362.0783 309.32176 362.0783 C 309.78837 362.0783 310.09742 361.6965 310.09742 361.139 Z M 311.0488 361.139 L 311.0488 361.139 C 311.0488 362.15706 310.37617 362.9206 309.32176 362.9206 C 308.26734 362.9206 307.58258 362.16312 307.58258 361.139 C 307.58258 360.0846 308.19462 359.27257 309.32176 359.27257 C 310.44283 359.27257 311.0488 360.0967 311.0488 361.139 Z M 313.7697 358.103 L 313.6909 358.91504 C 313.54548 358.85444 313.43034 358.83626 313.3031 358.83626 C 313.00615 358.83626 312.87283 358.97564 312.8789 359.2968 L 312.88495 359.38165 L 313.52124 359.38165 L 313.52124 360.16943 L 312.89707 360.16943 L 312.89707 362.82365 L 311.94568 362.82365 L 311.94568 360.16943 L 311.4124 360.16943 L 311.4124 359.38165 L 311.94568 359.38165 L 311.94568 359.18167 C 311.94568 358.39995 312.3517 358 313.14553 358 C 313.35156 358 313.58184 358.03636 313.7697 358.103 Z M 318.18733 361.98133 L 318.33883 362.7691 C 318.13885 362.86 317.83586 362.92667 317.4844 362.92667 C 316.84204 362.92667 316.4421 362.64185 316.4421 361.96315 C 316.4421 361.96315 316.4421 360.66634 316.4421 360.18155 L 315.89065 360.18155 L 315.89065 359.3756 L 316.4421 359.3756 L 316.4421 358.4848 L 317.3935 358.05454 L 317.3935 359.3756 L 318.27217 359.3756 L 318.27217 360.18155 L 317.3935 360.18155 L 317.3935 361.6662 C 317.3935 361.99345 317.49045 362.0783 317.72072 362.0783 C 317.8601 362.0783 318.03584 362.04193 318.18733 361.98133 Z M 321.8778 360.49666 L 321.8778 362.8176 L 320.91427 362.8176 L 320.91427 360.60574 C 320.91427 360.29063 320.7446 360.1149 320.43554 360.1149 C 320.09013 360.1149 319.84167 360.327 319.84167 360.7027 L 319.84167 362.8176 L 318.8842 362.8176 L 318.8842 358.0909 L 319.84167 358.0909 L 319.84167 359.56344 C 320.05377 359.3877 320.36282 359.2847 320.6355 359.2847 C 321.4354 359.2847 321.8778 359.78766 321.8778 360.49666 Z M 323.4776 360.72694 L 324.87136 360.72694 C 324.87136 360.3573 324.5623 360.09065 324.1684 360.09065 C 323.7927 360.09065 323.51395 360.3876 323.4776 360.72694 Z M 325.82276 361.25415 L 325.81064 361.40564 L 323.46547 361.40564 C 323.4897 361.79347 323.8412 362.0904 324.26537 362.0904 C 324.56837 362.0904 324.82288 361.99345 325.0471 361.7874 L 325.55612 362.41158 C 325.2107 362.7388 324.8047 362.9206 324.27143 362.9206 C 323.12006 362.9206 322.48377 362.10253 322.48377 361.08447 C 322.48377 360.09065 323.08976 359.2847 324.16235 359.2847 C 325.3501 359.2847 325.8894 360.18155 325.82276 361.25415 Z M 331.7614 358.0909 L 331.7614 359.0241 L 330.4343 359.0241 L 330.4343 362.8176 L 329.45867 362.8176 L 329.45867 359.0241 L 328.13156 359.0241 L 328.13156 358.0909 Z M 334.9065 359.58162 C 334.9065 359.2362 334.67015 359.012 334.30656 359.012 L 333.42182 359.012 L 333.42182 360.1452 L 334.30656 360.15125 C 334.67015 360.15125 334.9065 359.92098 334.9065 359.58162 Z M 335.12464 360.9148 L 336.25178 362.8176 L 335.08222 362.8176 L 334.046 361.0663 L 333.42182 361.0663 L 333.42182 362.8176 L 332.3674 362.8176 L 332.3674 358.0909 L 334.31262 358.0909 C 335.40946 358.0909 335.93666 358.75142 335.93666 359.618 C 335.93666 360.38153 335.4943 360.75724 335.12464 360.9148 Z M 340.1301 361.88437 L 340.1301 362.8176 L 336.85776 362.8176 L 336.85776 358.0909 L 339.9483 358.0909 L 339.9483 359.0241 L 337.82734 359.0241 L 337.82734 359.9755 L 339.7483 359.9755 L 339.7483 360.84813 L 337.82734 360.84813 L 337.82734 361.88437 Z M 342.09954 361.14507 L 343.33575 361.14507 L 342.71765 359.09683 Z M 343.3418 358.0909 L 344.90526 362.8176 L 343.83872 362.8176 L 343.59027 361.98133 L 341.83897 361.98133 L 341.58445 362.8176 L 340.52398 362.8176 L 342.0753 358.0909 Z M 349.22594 361.5329 L 349.22594 361.5329 C 349.22594 362.3146 348.63207 362.9206 347.3292 362.9206 C 346.5596 362.9206 345.74758 362.5449 345.26885 361.93285 L 346.0445 361.3087 C 346.34144 361.7268 346.85047 361.97527 347.33526 361.99345 C 347.89277 362.0177 348.1594 361.82983 348.1594 361.5329 C 348.1594 361.20567 347.88065 361.05417 347.50494 360.96933 L 346.82017 360.81784 C 346.14753 360.6603 345.40217 360.33305 345.40217 359.4059 C 345.40217 358.64235 346.00815 358.0121 347.25042 358.0121 C 348.06244 358.0121 348.71085 358.3151 349.13504 358.8423 L 348.32908 359.46043 C 348.0988 359.13925 347.69885 358.9332 347.25042 358.9332 C 346.7414 358.9332 346.4687 359.12713 346.4687 359.36953 C 346.4687 359.61192 346.67474 359.7634 347.18982 359.8846 L 347.78975 360.03005 C 348.826 360.2785 349.22594 360.7754 349.22594 361.5329 Z M 353.94657 358.0909 L 353.94657 361.11477 C 353.94657 362.35704 352.97093 362.92667 351.97105 362.92667 C 350.953 362.92667 350.0137 362.35704 350.0137 361.12083 L 350.0137 358.0909 L 351.03178 358.0909 L 351.03178 361.11477 C 351.03178 361.7147 351.4984 361.99345 351.98317 361.99345 C 352.45584 361.99345 352.93457 361.72075 352.93457 361.11477 L 352.9285 358.0909 Z M 357.42493 359.58162 C 357.42493 359.2362 357.1886 359.012 356.825 359.012 L 355.94026 359.012 L 355.94026 360.1452 L 356.825 360.15125 C 357.1886 360.15125 357.42493 359.92098 357.42493 359.58162 Z M 357.6431 360.9148 L 358.7702 362.8176 L 357.60066 362.8176 L 356.56443 361.0663 L 355.94026 361.0663 L 355.94026 362.8176 L 354.88585 362.8176 L 354.88585 358.0909 L 356.83106 358.0909 C 357.9279 358.0909 358.4551 358.75142 358.4551 359.618 C 358.4551 360.38153 358.01273 360.75724 357.6431 360.9148 Z M 361.90317 358.0909 L 363 358.0909 L 361.42444 360.93297 L 361.42444 362.8176 L 360.4488 362.8176 L 360.4488 360.93297 L 358.8611 358.0909 L 359.95795 358.0909 L 360.92753 359.9028 Z" fill="white"/>
          </g>
          <g id="Graphic_60">
            <path d="M 329.9965 227.42293 C 329.9965 230.41307 329.37997 235.46856 325.4034 235.46856 C 321.42683 235.46856 320.5637 230.41307 320.5637 227.36128 C 320.5637 224.5561 321.6426 219.4698 325.2801 219.4698 C 328.91758 219.4698 329.9965 224.61776 329.9965 227.42293 Z M 335.11363 227.3921 C 335.11363 221.44266 332.031 215 325.2801 215 C 318.4367 215 315.44656 221.381 315.44656 227.3921 C 315.44656 233.37238 318.4367 240 325.4034 240 C 332.2468 240 335.11363 233.34155 335.11363 227.3921 Z" fill="white"/>
            <path d="M 329.9965 227.42293 C 329.9965 230.41307 329.37997 235.46856 325.4034 235.46856 C 321.42683 235.46856 320.5637 230.41307 320.5637 227.36128 C 320.5637 224.5561 321.6426 219.4698 325.2801 219.4698 C 328.91758 219.4698 329.9965 224.61776 329.9965 227.42293 Z M 335.11363 227.3921 C 335.11363 221.44266 332.031 215 325.2801 215 C 318.4367 215 315.44656 221.381 315.44656 227.3921 C 315.44656 233.37238 318.4367 240 325.4034 240 C 332.2468 240 335.11363 233.34155 335.11363 227.3921 Z" stroke="white" stroke-linecap="square" stroke-linejoin="miter" stroke-width="6" clip-path="url(#inner_stroke_clip_path)"/>
          </g>
          <g id="Graphic_59">
            <path d="M 302.31547 215 L 297.8765 215 C 297.72237 216.5413 297.44494 217.28113 296.76676 217.80518 C 296.02693 218.32922 294.7939 218.51418 293.19093 218.57583 L 293.19093 222.5524 L 297.19833 222.5524 L 297.19833 239.0444 L 302.31547 239.0444 Z" fill="white"/>
            <path d="M 302.31547 215 L 297.8765 215 C 297.72237 216.5413 297.44494 217.28113 296.76676 217.80518 C 296.02693 218.32922 294.7939 218.51418 293.19093 218.57583 L 293.19093 222.5524 L 297.19833 222.5524 L 297.19833 239.0444 L 302.31547 239.0444 Z" stroke="white" stroke-linecap="square" stroke-linejoin="miter" stroke-width="6" clip-path="url(#inner_stroke_clip_path_2)"/>
          </g>
        </g>
      </g>
      <g id="Graphic_56">
        <rect x="165" y="590" width="300" height="45.5" fill="black"/>
        <rect x="165" y="590" width="300" height="45.5" stroke="white" stroke-linecap="square" stroke-linejoin="miter" stroke-width="3"/>
      </g>
    </g>
  </g>
</svg>
