<?xml version="1.0" encoding="UTF-8" standalone="no"?>
<!DOCTYPE svg PUBLIC "-//W3C//DTD SVG 1.1//EN" "http://www.w3.org/Graphics/SVG/1.1/DTD/svg11.dtd">
<svg xmlns:xl="http://www.w3.org/1999/xlink" xmlns="http://www.w3.org/2000/svg" xmlns:dc="http://purl.org/dc/elements/1.1/" version="1.1" viewBox="102.5 159 425 293.75" width="425" height="293.75">
  <defs/>
  <metadata> Produced by OmniGraffle 7.10.2 
    <dc:date>2019-06-05 21:30:52 +0000</dc:date>
  </metadata>
  <g id="touch" fill="none" stroke-dasharray="none" fill-opacity="1" stroke="none" stroke-opacity="1">
    <title>touch</title>
    <g id="touch: Layer 1">
      <title>Layer 1</title>
      <g id="Group_108">
        <g id="Graphic_115">
          <path d="M 521.25 348.23902 L 521.25 446.5 L 422.989 446.5 L 416.739 452.75 L 521.25 452.75 L 527.5 452.75 L 527.5 446.5 L 527.5 341.98902 Z M 496.25 373.23902 L 494.1667 375.32235 L 494.1667 419.41667 L 450.07235 419.41667 L 447.989 421.5 L 494.1667 421.5 L 496.25 421.5 L 496.25 419.41667 Z" fill="#302783"/>
        </g>
        <g id="Graphic_114">
          <path d="M 521.25 223.932 L 521.25 348.23902 L 527.5 341.98902 L 527.5 217.682 Z M 298.682 446.5 L 292.432 452.75 L 416.739 452.75 L 422.989 446.5 Z M 496.25 248.932 L 494.1667 251.01534 L 494.1667 375.32235 L 496.25 373.23902 Z M 323.682 421.5 L 447.989 421.5 L 450.07235 419.41667 L 325.76534 419.41667 Z" fill="#009fe3"/>
        </g>
        <g id="Graphic_113">
          <path d="M 436.875 184 L 521.25 184 L 521.25 223.932 L 527.5 217.682 L 527.5 184 L 527.5 177.75 L 521.25 177.75 L 443.125 177.75 Z M 174.375 446.5 L 168.125 452.75 L 292.432 452.75 L 298.682 446.5 Z M 411.875 209 L 409.79167 211.08333 L 494.1667 211.08333 L 494.1667 251.01534 L 496.25 248.932 L 496.25 211.08333 L 496.25 209 L 494.1667 209 Z M 199.375 421.5 L 323.682 421.5 L 325.76534 419.41667 L 201.45833 419.41667 Z" fill="#00963f"/>
        </g>
        <g id="Graphic_112">
          <path d="M 297.5118 309.3357 C 297.6629 310.01316 297.8146 310.69393 297.96573 311.375 C 307.4974 309.2437 319.4864 309.2437 329.01746 311.375 C 329.1701 310.69393 329.3245 310.01316 329.47412 309.3357 C 319.64415 307.13747 307.34356 307.13747 297.5118 309.3357 Z M 333.89073 297.965 C 333.89073 294.35183 331.84842 291.0228 328.55558 289.27155 C 327.25587 288.58626 325.8013 288.20832 324.32515 288.10577 C 324.04343 287.86326 323.7552 287.61834 323.44816 287.41294 C 320.66777 285.5854 317.09985 285.85414 314.5137 287.8919 L 314.5137 285.4231 L 317.02685 285.4231 L 317.02685 283.46014 L 314.5137 283.46014 L 314.5137 281.375 L 312.55013 281.375 L 312.55013 283.46014 L 310.03518 283.46014 L 310.03518 285.4231 L 312.55013 285.4231 L 312.55013 287.88528 C 309.96068 285.85082 306.4 285.58358 303.61327 287.41294 C 303.318 287.60718 303.0414 287.82646 302.77264 288.05962 C 301.1891 288.0922 299.6255 288.50572 298.2362 289.2812 C 295.11257 291.03395 293.1713 294.36148 293.1713 297.96198 C 293.1713 299.00048 293.3342 300.02962 293.631 300.92846 C 294.04602 302.82116 295.30983 304.80465 296.91387 306.71665 C 296.90905 306.71665 296.9145 306.72364 296.90967 306.72364 C 297.0608 307.4044 297.2125 308.07885 297.3636 308.7596 C 308.0158 306.37708 318.94037 306.37708 329.5944 308.7596 C 329.7437 308.08186 329.89812 307.4044 330.04773 306.72364 C 329.99494 306.714 330.05707 306.69765 330.0064 306.6862 C 331.659 304.811 332.9554 302.87515 333.3816 301.03313 C 333.7191 300.03927 333.89073 299.00832 333.89073 297.965 Z M 314.514 290.71845 L 314.514 290.71845 C 316.48302 288.0955 319.8012 287.368 322.37015 289.0571 C 324.48725 290.45453 325.79932 293.1387 325.79932 296.06234 C 325.79932 296.91413 325.6865 297.75537 325.4446 298.64003 C 325.04707 300.77614 323.5486 303.13184 321.71924 305.3301 C 319.77557 305.12015 317.82556 305.00885 315.87223 304.95154 C 316.2396 304.4617 314.5137 290.71845 314.5137 290.71845 Z M 304.6937 289.0586 L 304.6937 289.0586 C 305.65105 288.4279 306.68503 288.1091 307.76816 288.1091 C 309.5909 288.1091 311.31136 289.06675 312.55043 290.7112 C 312.55043 290.7112 310.82212 304.4581 311.1871 304.94792 C 309.2443 305.00493 307.29883 305.11653 305.3639 305.32496 C 303.52188 303.1062 302.00712 300.72155 301.60143 298.55377 C 301.37702 297.73787 301.26512 296.89785 301.26512 296.0575 C 301.2627 293.1399 302.5775 290.45573 304.6937 289.0586 Z M 295.52127 300.42113 L 295.52127 300.42113 C 295.2643 299.62273 295.134 298.79688 295.134 297.965 C 295.134 295.0733 296.69127 292.40363 299.19476 290.99805 C 299.73166 290.69975 300.30354 290.47323 300.892 290.30944 C 300.29238 291.29244 299.84145 292.39066 299.57904 293.567 C 299.57904 293.567 299.29883 295.3704 299.29883 296.06053 C 299.29883 297.07852 299.43576 298.0926 299.6861 298.99746 C 300.0918 301.16886 301.41744 303.46544 303.08543 305.632 C 301.75828 305.8148 300.43384 306.03287 299.11302 306.28563 C 297.33766 304.3341 295.9372 302.29815 295.52127 300.42113 Z M 331.4952 300.49744 L 331.4952 300.49744 C 331.06902 302.3298 329.62152 304.3308 327.77497 306.25547 C 326.5166 306.0169 325.257 305.80997 323.99078 305.63503 C 325.6449 303.48776 326.95726 301.2165 327.3533 299.0768 C 327.62355 298.10495 327.7605 297.08938 327.7605 296.06053 C 327.7605 295.37162 327.4806 293.5667 327.4806 293.5667 C 327.23235 292.43892 326.80283 291.38655 326.24603 290.43733 C 326.7202 290.58905 327.1844 290.76972 327.63622 291.0074 C 330.283 292.4151 331.92775 295.07935 331.92775 297.9647 C 331.92775 298.79356 331.7911 299.6146 331.4952 300.49744 Z M 307.2695 338.3006 L 295.77205 338.3006 L 295.77205 333.12675 L 305.36333 333.12675 L 305.36333 328.76982 L 295.77205 328.76982 L 295.77205 324.01957 L 306.3618 324.01957 L 306.3618 319.36008 L 290.93102 319.36008 L 290.93102 342.9601 L 307.2695 342.9601 Z M 312.25646 325.58266 L 309.9397 325.58266 L 309.9397 336.7375 L 312.25646 336.7375 Z M 317.0044 325.58266 L 314.68764 325.58266 L 314.68764 336.7375 L 317.0044 336.7375 Z M 332.35205 326.80316 L 332.35205 326.80316 C 332.35205 328.4975 331.17205 329.64726 329.35667 329.64726 L 324.93923 329.617 L 324.93923 323.95905 L 329.35667 323.95905 C 331.17205 323.95905 332.35205 325.07854 332.35205 326.80316 Z M 333.4413 333.45957 C 335.28692 332.6729 337.49564 330.797 337.49564 326.9847 C 337.49564 322.65803 334.86333 319.36008 329.38692 319.36008 L 319.6746 319.36008 L 319.6746 342.9601 L 324.93923 342.9601 L 324.93923 334.21598 L 328.05564 334.21598 L 333.2295 342.9601 L 339.06898 342.9601 Z" fill="#fe0"/>
        </g>
        <g id="Graphic_111">
          <path d="M 367.08333 177.75 L 367.08333 167.33333 L 387.91667 167.33333 L 387.91667 177.75 Z M 312.568 184 L 436.875 184 L 443.125 177.75 L 390 177.75 L 390 167.33333 L 390 165.25 L 390 159 L 337.568 159 L 329.23466 167.33333 L 365 167.33333 L 365 177.75 L 318.818 177.75 Z M 108.75 387.818 L 102.5 394.068 L 102.5 446.5 L 102.5 452.75 L 108.75 452.75 L 168.125 452.75 L 174.375 446.5 L 108.75 446.5 Z M 287.568 209 L 285.48466 211.08333 L 409.79167 211.08333 L 411.875 209 Z M 133.75 362.818 L 133.75 419.41667 L 133.75 421.5 L 135.83333 421.5 L 199.375 421.5 L 201.45833 419.41667 L 135.83333 419.41667 L 135.83333 360.73466 Z" fill="#fe0"/>
        </g>
        <g id="Graphic_110">
          <path d="M 242.08333 177.75 L 242.08333 167.33333 L 262.91667 167.33333 L 262.91667 177.75 Z M 108.75 263.51098 L 102.5 269.76098 L 102.5 394.068 L 108.75 387.818 Z M 312.568 184 L 318.818 177.75 L 265 177.75 L 265 167.33333 L 329.23466 167.33333 L 337.568 159 L 240 159 L 240 165.25 L 240 167.33333 L 240 177.75 L 194.51098 177.75 L 188.26098 184 Z M 133.75 238.51098 L 133.75 362.818 L 135.83333 360.73466 L 135.83333 236.42765 Z M 287.568 209 L 163.26098 209 L 161.17765 211.08333 L 285.48466 211.08333 Z" fill="#f57738"/>
        </g>
        <g id="Graphic_109">
          <path d="M 108.75 263.51098 L 108.75 184 L 188.26098 184 L 194.51098 177.75 L 108.75 177.75 L 102.5 177.75 L 102.5 184 L 102.5 269.76098 Z M 133.75 238.51098 L 135.83333 236.42765 L 135.83333 211.08333 L 161.17765 211.08333 L 163.26098 209 L 135.83333 209 L 133.75 209 L 133.75 211.08333 Z" fill="#e30713"/>
        </g>
      </g>
    </g>
  </g>
</svg>
