<?xml version="1.0" encoding="UTF-8" standalone="no"?>
<!DOCTYPE svg PUBLIC "-//W3C//DTD SVG 1.1//EN" "http://www.w3.org/Graphics/SVG/1.1/DTD/svg11.dtd">
<svg xmlns:xl="http://www.w3.org/1999/xlink" xmlns="http://www.w3.org/2000/svg" xmlns:dc="http://purl.org/dc/elements/1.1/" version="1.1" viewBox="0 0 16 16" width="16" height="16">
  <defs/>
  <metadata> Produced by OmniGraffle 7.10.2 
    <dc:date>2019-06-05 21:30:52 +0000</dc:date>
  </metadata>
  <g id="Canvas_8" fill="none" stroke-dasharray="none" fill-opacity="1" stroke="none" stroke-opacity="1">
    <title>svg</title>
    <g id="Canvas_8: Layer 1">
      <title>Layer 1</title>
      <g id="Graphic_70">
        <path d="M 16 9.138597 C 16 7.718864 15.197511 6.410775 13.903644 5.7226564 C 13.392948 5.4533824 12.821401 5.304879 12.241372 5.2645824 C 12.130675 5.1692935 12.017422 5.0730564 11.89677 4.9923453 C 10.804267 4.2742416 9.402311 4.3798416 8.386133 5.180553 L 8.386133 4.2104786 L 9.37363 4.2104786 L 9.37363 3.43916 L 8.386133 3.43916 L 8.386133 2.6198416 L 7.614578 2.6198416 L 7.614578 3.43916 L 6.62637 3.43916 L 6.62637 4.2104786 L 7.614578 4.2104786 L 7.614578 5.1779453 C 6.597096 4.378538 5.197985 4.2735305 4.1029926 4.9923453 C 3.986963 5.068671 3.8782815 5.154834 3.7726815 5.246449 C 3.1504593 5.259249 2.5360593 5.421738 1.990163 5.726449 C .7627852 6.41516 0 7.722656 0 9.137412 C 0 9.545471 .064 9.949856 .18062222 10.303042 C .3437037 11.046745 .8402963 11.826123 1.4705778 12.577412 C 1.4686815 12.577412 1.4708216 12.580158 1.4689253 12.580158 C 1.5283031 12.847655 1.587918 13.112662 1.6472957 13.380158 C 5.832896 12.44398 10.125515 12.44398 14.311826 13.380158 C 14.370492 13.113847 14.431174 12.847655 14.48996 12.580158 C 14.469218 12.576366 14.49363 12.569945 14.473719 12.565442 C 15.123081 11.828612 15.632474 11.06796 15.79994 10.344168 C 15.932563 9.953649 16 9.548553 16 9.138597 Z M 8.386252 6.29119 C 9.159941 5.260553 10.463763 4.974686 11.473185 5.63839 C 12.305067 6.187486 12.820622 7.242182 12.820622 8.390982 C 12.820622 8.725679 12.776296 9.056227 12.681244 9.403842 C 12.525037 10.24319 11.936237 11.16882 11.217422 12.032582 C 10.453689 11.950093 9.687467 11.90636 8.919941 11.883842 C 9.064296 11.691368 8.386133 6.29119 8.386133 6.29119 Z M 4.527526 5.6389824 C 4.9037037 5.39116 5.309985 5.265886 5.735585 5.265886 C 6.4517926 5.265886 7.127822 5.6421824 7.614696 6.288345 C 7.614696 6.288345 6.935585 11.689945 7.078993 11.88242 C 6.315615 11.90482 5.5511704 11.948671 4.790874 12.030568 C 4.0670815 11.158745 3.4718815 10.221738 3.312474 9.369945 C 3.2242963 9.049353 3.180326 8.719279 3.180326 8.389086 C 3.1793778 7.242656 3.696 6.18796 4.527526 5.6389824 Z M .9233778 10.103693 C .8224 9.789975 .7712 9.465471 .7712 9.138597 C .7712 8.00236 1.3831111 6.953353 2.3668148 6.4010564 C 2.5777778 6.2838416 2.802489 6.194834 3.0337185 6.130479 C 2.7981037 6.5167305 2.6209185 6.9482564 2.5178074 7.410479 C 2.5178074 7.410479 2.4077037 8.119101 2.4077037 8.390271 C 2.4077037 8.790271 2.461511 9.18873 2.5598815 9.544286 C 2.719289 10.397501 3.2401778 11.299901 3.895585 12.15122 C 3.3741037 12.223042 2.853689 12.30873 2.3346963 12.408049 C 1.6370963 11.641234 1.0868148 10.841234 .9233778 10.103693 Z M 15.058726 10.133679 C 14.89126 10.853679 14.322489 11.63993 13.596919 12.396197 C 13.10246 12.302449 12.607526 12.221145 12.109985 12.152405 C 12.75994 11.308671 13.275615 10.416227 13.43123 9.575456 C 13.537422 9.19359 13.59123 8.794538 13.59123 8.390271 C 13.59123 8.119575 13.481244 7.41036 13.481244 7.41036 C 13.383704 6.967219 13.214933 6.553708 12.996148 6.1807305 C 13.18246 6.240345 13.36486 6.311338 13.5424 6.4047305 C 14.5824 6.9578564 15.228681 8.0047305 15.228681 9.138479 C 15.228681 9.464168 15.174993 9.786775 15.058726 10.133679 Z" fill="black"/>
      </g>
    </g>
  </g>
</svg>
